<?xml version="1.0" encoding="utf-8"?>
<!-- Generator: Adobe Illustrator 26.0.3, SVG Export Plug-In . SVG Version: 6.00 Build 0)  -->
<svg version="1.1" id="Layer_1" focusable="false" xmlns="http://www.w3.org/2000/svg" xmlns:xlink="http://www.w3.org/1999/xlink"
	 x="0px" y="0px" viewBox="0 0 32.5 32.9" style="enable-background:new 0 0 32.5 32.9;" xml:space="preserve">
<path d="M25.7,12.8c-0.6,0-1.2,0.5-1.2,1.2v15.1h-21v-21h15.1c0.6,0,1.2-0.5,1.2-1.2s-0.5-1.2-1.2-1.2H2.4C1.7,5.9,1.2,6.4,1.2,7
	v23.3c0,0.6,0.5,1.2,1.2,1.2h23.3c0.6,0,1.2-0.5,1.2-1.2V14C26.8,13.4,26.3,12.8,25.7,12.8z"/>
<path d="M30.3,1.2h-7c-0.6,0-1.2,0.5-1.2,1.2s0.5,1.2,1.2,1.2h4.2l-12,12c-0.5,0.5-0.5,1.2,0,1.6c0.2,0.2,0.5,0.3,0.8,0.3
	s0.6-0.1,0.8-0.3l12-12v4.2c0,0.6,0.5,1.2,1.2,1.2c0.6,0,1.2-0.5,1.2-1.2v-7C31.5,1.7,31,1.2,30.3,1.2z"/>
</svg>
